<?xml version="1.0" encoding="utf-8"?>
<!-- Generator: Adobe Adobe Illustrator 29.2.0, SVG Export Plug-In . SVG Version: 6.00 Build 0)  -->
<svg version="1.1" xmlns="http://www.w3.org/2000/svg" xmlns:xlink="http://www.w3.org/1999/xlink" x="0px" y="0px" width="720px"
	 height="720px" viewBox="0 0 720 720" style="enable-background:new 0 0 720 720;" xml:space="preserve">
<style type="text/css">
	.st0{fill:#1C163C;}
	.st1{font-family:'ProximaNovaHebrew-Regular';}
	.st2{font-size:130px;}
	.st3{display:none;}
	.st4{display:inline;fill:url(#SVGID_1_);}
	.st5{fill:#18163A;}
	.st6{display:inline;fill:none;}
	.st7{fill:url(#shadow_head_light_00000130608191624012184550000001924083104773461419_);stroke:#45889E;stroke-miterlimit:10;}
	.st8{fill:none;}
	.st9{fill:#1B153B;}
	.st10{fill:#3F4CA2;}
	.st11{fill:url(#SVGID_00000111876086192141679010000017524030615097779599_);}
	.st12{fill:url(#SVGID_00000159428947758014243880000005306582896774883231_);}
	.st13{fill:url(#SVGID_00000103981043416551924870000006100657791721045407_);}
	.st14{fill:#F5DA47;}
	.st15{fill:#FFFFFF;}
	.st16{fill:#18153B;}
	.st17{fill:url(#SVGID_00000034077752258972247980000015307894330477530773_);stroke:#2E3673;stroke-miterlimit:10;}
	.st18{fill:url(#SVGID_00000005980614043079619830000012651452983977309061_);stroke:#36257E;stroke-miterlimit:10;}
	.st19{fill:#18153A;}
	.st20{fill:url(#SVGID_00000176022631436025656810000011164681950658250643_);stroke:#2C1962;stroke-miterlimit:10;}
	.st21{fill:#1A1646;}
	.st22{fill:url(#SVGID_00000036938687162739859280000000612504060267508155_);}
	.st23{fill:url(#SVGID_00000093142663283325971560000003673643139258954412_);}
	.st24{fill:url(#SVGID_00000152979164068755584910000002290758291502643889_);}
	.st25{fill:url(#SVGID_00000028293305870731014070000005929984677077540766_);}
	.st26{fill:url(#SVGID_00000181082167569556798070000006967056016523408311_);}
	.st27{fill:#404FA4;}
	.st28{fill:#404FA4;stroke:#2D2D73;stroke-miterlimit:10;}
	.st29{fill:#3B338F;stroke:#3A2887;stroke-miterlimit:10;}
	.st30{fill:url(#SVGID_00000125600962103090272200000010632687706250599572_);stroke:#323083;stroke-miterlimit:10;}
	.st31{fill:url(#SVGID_00000020399437062379760710000003555841352628086950_);}
	.st32{fill:url(#SVGID_00000119834773508852622950000000743089998243615390_);}
	.st33{fill:#F0B242;}
	.st34{fill:#945420;}
	.st35{fill:#EEEA85;}
	.st36{fill:#B3652A;}
	.st37{fill:url(#tail_db_00000087379209565055104170000007586138118494557082_);}
	.st38{fill:url(#tail_lb_00000112590607594264346460000010084079963279591049_);stroke:#291862;stroke-miterlimit:10;}
	.st39{fill:#322E7D;}
	.st40{fill:url(#tail_lb_shadow_00000068669257701026806150000008782578148278140297_);}
	.st41{fill:url(#SVGID_00000078039061641551014160000007342308946391487889_);}
	.st42{fill:#19173C;}
	.st43{fill:url(#lower_beak_00000070080277299754538850000013343898928761482640_);}
	.st44{fill:url(#Uppebeak_00000040559710712661873280000016528373763267657876_);}
	.st45{fill:url(#shadow_00000021822997941312104550000017527051372046706063_);}
	.st46{fill:url(#SVGID_00000010269512578375432120000008515108560168946844_);stroke:#1B153B;stroke-miterlimit:10;}
	.st47{fill:url(#SVGID_00000135678525327681363490000001951188705478589599_);}
	.st48{fill:url(#SVGID_00000102525138325540810920000016062858444074182584_);}
	.st49{fill:url(#SVGID_00000057840027532412583990000001364511738740148645_);stroke:#2E2A74;stroke-miterlimit:10;}
</style>
<g id="Layer_30">
	<text transform="matrix(1.36 0 0 1 68.2331 677.4907)" class="st0 st1 st2">RETRIX</text>
</g>
<g id="tail_last">
</g>
<g id="Layer_1">
	<g id="full_bird">
	</g>
	<g id="yellow_main">
	</g>
	<g id="shadow_oj">
	</g>
	<g id="tail_dark_shadow">
	</g>
	<g id="gold_slash">
	</g>
	<g id="white_blank">
	</g>
	<g id="white_above_eye">
	</g>
	<g id="eye_db">
	</g>
	<g id="eye1">
	</g>
	<g id="big_wing">
	</g>
	<g id="bird_big_side">
	</g>
	<g id="bird_big_side_shadow">
	</g>
	<g id="wing_low">
	</g>
	<g id="winglow_shadow">
	</g>
	<g id="wing_low_shadow_2">
	</g>
	<g id="top_wing_light_shadow">
	</g>
	<g id="_x32_nd_wing_light_shadow" class="st3">
	</g>
	<g id="_x33_rd_wing_light_shadow">
	</g>
	<g id="_x33_rd_wing_shadow">
	</g>
	<g id="neck_shadow_2">
	</g>
	<g id="neck_light_shadow">
	</g>
	<g id="shadow_face">
	</g>
	<g id="top">
	</g>
	<g id="face_shadow">
	</g>
	<g id="faceshadow">
	</g>
	<g id="Layer_31">
	</g>
	<g id="head-blue">
	</g>
	<g id="shadow_side" class="st3">
	</g>
</g>
<g id="Layer_34">
</g>
<g id="Layer_35">
</g>
<g id="Layer_36">
</g>
<g id="Layer_33">
</g>
<g id="Layer_32">
	<g>
		
			<linearGradient id="shadow_head_light_00000169535686756172216430000004756288654317402270_" gradientUnits="userSpaceOnUse" x1="361.5206" y1="171.917" x2="623.5109" y2="171.917">
			<stop  offset="0" style="stop-color:#4C77B2"/>
			<stop  offset="0.3061" style="stop-color:#8FC3D9"/>
			<stop  offset="1" style="stop-color:#4EA1C8"/>
		</linearGradient>
		
			<path id="shadow_head_light" style="fill:url(#shadow_head_light_00000169535686756172216430000004756288654317402270_);stroke:#45889E;stroke-miterlimit:10;" d="
			M623.51,207.04c0,0-66.07-59.51-131.48-57.83c-91.98,2.36-120.07-9.31-130.51-12.41c0,0,17.08,8.2,39.58,12.36
			c10.29,1.9,33.39,3.27,61.03,5.12c48.36,3.24,111.13,11.03,143.07,39.58"/>
		<rect x="77.06" y="561.63" class="st8" width="549.61" height="83.61"/>
		<path class="st9" d="M67.6,540.2c0,0,146.19-130.32,339.01-109.79L67.6,540.2z"/>
		<path class="st10" d="M156.91,234.59c2.71,1.65,5.56,3.25,8.52,4.79c64.9,33.9,184.79,43.81,154.24,50.75
			c-14.47,3.29-49.62,15.47-64.11,20.89c-24.94,9.32-43.1,10.68-24.2,8.48c87.14-10.16,161.95,0.08,161.95,0.08
			s-175.86,7.15-353.37,102.59c0,0,142.31-68.48,358.24-48.42c16.77,1.56,45.02,7.91,67.91,13.43c29.04,7,50.22,5.44,72.27,4.25
			c0,0-16.84-2.84-16.73-4.88c0,0,29.24-17.2,46.86-45.81c4.73-7.68,20.43-51.96,48.76-80.09c25.34-25.17,63.2-34.82,73.58-35.84
			c0,0-48.13-17.05-69.15-19.12c0,0-10.52-8.82-25.52-19.82c-16.24-11.91-39.12-26.39-97.28-35.01c-4.97-0.74-33.35,0.06-37.06-0.86
			c-4.75-1.19-26.01,10.97-101.09-13.43c0,0,37.64,33.68,59.26,42.09c0,0-12.95,5.78-47.83-7.46c0,0,33.52,30.8,52.48,39.5
			c0,0,0.76,9.78-33.25,8.69c0,0-17.91-38.52-189.65-87.49C178.91,125.42,103.7,116.89,20,74.98c0,0,6.26,25.73,41.94,51.61
			c28.38,20.59,72.56,43.46,154.69,54.27c48.19,6.35,48.22,11.24,75.36,14.74c0,0-23.23-2.36-52.87-5.5
			c-57.05-6.05-143.23-17.7-170.98-40c0,0,46.58,76.68,200.07,81.57c0,0-73.68,4.02-130.96-13.23"/>
		<linearGradient id="SVGID_1_" gradientUnits="userSpaceOnUse" x1="28.3198" y1="393.5375" x2="699.7964" y2="393.5375">
			<stop  offset="0" style="stop-color:#F0E247"/>
			<stop  offset="0.3483" style="stop-color:#F0E147"/>
			<stop  offset="0.4998" style="stop-color:#F0E247"/>
			<stop  offset="0.7347" style="stop-color:#F3DE47"/>
			<stop  offset="1" style="stop-color:#EEEA8E"/>
		</linearGradient>
		<path style="fill:url(#SVGID_1_);" d="M517.32,432.16c0,0-1.35,0.6-3.92,1.73c-1.76,0.78-4.1,1.8-6.97,3.04
			c-30.99,13.47-123.71,52.92-220.8,85.97c0,0,183.65-49.12,213.4-61.56c30.65-12.82,68.75-27.93,95.47-45.62
			c26.21-17.34,38.95-29.7,56.71-52.35c17.23-21.97,36.06-71.75,48.59-99.21l-33.6,11.58l5.47,4.32c0,0,15.68,19.55-32.85,79.83
			c0,0-49.41,58.37-153.97,44.64c0,0-42.48-10.05-89.9-16.55c-72.33-9.91-181.34-4.94-366.63,108.67c0,0,59.01-24.56,138.34-47.86
			c61.71-18.12,125.76-36.06,215.38-31.9c29.09,1.35,75.89,17.58,113.02,15.01l33.82-0.5"/>
		
			<linearGradient id="SVGID_00000079444271053688252780000001328901766659236264_" gradientUnits="userSpaceOnUse" x1="305.4552" y1="389.7047" x2="700.7061" y2="389.7047">
			<stop  offset="0" style="stop-color:#E3993A"/>
			<stop  offset="0.4809" style="stop-color:#D08532"/>
			<stop  offset="1" style="stop-color:#CE8A33"/>
		</linearGradient>
		<path style="fill:url(#SVGID_00000079444271053688252780000001328901766659236264_);" d="M697.18,264.15l-14.72,13.26
			c0,0-2.89,79.22-93.65,128.54c-23.44,12.74-143.97,79.17-283.35,111.29c0,0,173.55-37.09,272.47-91.16c0,0,28.1-12.86,56.13-42.13
			c11.26-11.76,26.28-26.16,33.65-43.44c8.51-19.95,18.51-39.88,23.14-55.76c3.01-10.33,7.2-18.75,7.62-22.44
			c0.08-0.72,2.16,1.53,2.23,0.76"/>
		
			<linearGradient id="SVGID_00000098189555659974566110000013770683618021171639_" gradientUnits="userSpaceOnUse" x1="42.7553" y1="441.6081" x2="410.1429" y2="441.6081">
			<stop  offset="0" style="stop-color:#E9A23D"/>
			<stop  offset="0.2414" style="stop-color:#EEAB40"/>
			<stop  offset="0.3955" style="stop-color:#EFB141"/>
			<stop  offset="0.6087" style="stop-color:#F1B643"/>
			<stop  offset="0.8043" style="stop-color:#F2BA43"/>
			<stop  offset="1" style="stop-color:#EFAF41"/>
		</linearGradient>
		<path style="fill:url(#SVGID_00000098189555659974566110000013770683618021171639_);" d="M237.53,428.65
			c-70.12,11.45-194.78,61.36-194.78,61.36s7.3-7.23,73.9-40.56c160.78-80.47,293.49-50.97,293.49-50.97S364.93,389,283.2,413.44
			c-11.68,3.49-29.97,8.66-42.84,13.61"/>
		<path class="st14" d="M520.67,387.06c0,0,105.15-21.07,142.99-100.27c0,0-32.04,103.27-137.27,102.92"/>
		<line class="st14" x1="525.05" y1="387.78" x2="529.18" y2="384.99"/>
		<path class="st15" d="M508.28,327.43c0,0-1.76,0.98-2.3,1.38c-0.54,0.4,0.14,0.21,5.02-2.14c1.09-0.53,2.18-1.09,3.26-1.68
			c4.99-2.74,9.91-6.18,15.18-10.18c3.78-2.87,7.74-6.02,12.04-9.39c11.48-9.02,22.69-19.74,30.82-34.69
			c13.09-24.08,32.23-38.23,50.83-46.34c0,0-7.07,1.46-16.29,2.18c-6.88,0.54-15.19,0.23-21.46,1
			c-20.46,2.49-36.94,8.14-51.34,23.33c0,0-9.69-12.25-16.45-14.76c0,0,4.56-2.27,9.47-0.9c0,0,3.49-12.45-58.87,4.85
			c0,0,27.57,11.2,32.65,37.47c0,0,2.72-2.93,2.51-11.74c0,0,14.77,37.45-11.47,66.69l-0.57,2.04"/>
		<path class="st15" d="M624.12,220.18c0,0-20.15-34.14-69.77-24.38c0,0,35.54-8.76,68.97,25.54"/>
		<path class="st16" d="M624.76,222.21c0,0-7.43,4.64-18.72,4.78c-27.69,0.36-48.95,3.81-71.44,22.31c0,0-8.93-13.58-17.92-12.72
			l11.04-2.05c0,0-5.46-9.06-59.21,5.8c0,0,18.57-3.19,38.56-16.9c1.57-1.08,3.1-2.24,4.58-3.45c6-4.87,11.44-10.47,17.3-14.1
			c12.06-7.45,27.14-11.88,31.72-10.83c0,0,14.93-1.87,34.53,6.17c9.73,3.99,17.6,10.05,31.33,20.74"/>
		<path class="st15" d="M569.87,197.86c0,0,30.05,4.01,30.05,12.1c0,0-15.38,8.48-30.74-12.2"/>
		
			<linearGradient id="SVGID_00000135690871176578177050000003948205955750337718_" gradientUnits="userSpaceOnUse" x1="19.294" y1="196.6616" x2="429.5356" y2="196.6616">
			<stop  offset="0" style="stop-color:#323484"/>
			<stop  offset="0.2021" style="stop-color:#405BAA"/>
			<stop  offset="0.543" style="stop-color:#3B68AD"/>
			<stop  offset="0.627" style="stop-color:#4077AE"/>
			<stop  offset="0.8024" style="stop-color:#231E50"/>
			<stop  offset="1" style="stop-color:#282459"/>
		</linearGradient>
		<path style="fill:url(#SVGID_00000135690871176578177050000003948205955750337718_);stroke:#2E3673;stroke-miterlimit:10;" d="
			M391.36,218.36c0,0-7.22-6.24-21.13-16.29c-12.3-8.89-28.54-20.53-68.63-36.65c-21.32-8.57-50.51-17.18-82.67-27.83
			c-7.65-2.53-21.18-3.36-30.38-6.39c-25.18-8.28-54.49-16.08-86.21-25.56c-17.55-5.24-43.13-10.58-60.62-17.67
			C31.55,83.86,29.4,77.17,19.31,74.75c0,0-6.11,66.48,197.86,105.72c8.61,1.66,52.8,12.91,63.35,14.35c0,0,54.62,2.69,108.94,45.85
			c0,0-30.99-23.95-78.41-29.35C186.26,197.11,106.9,169.54,69.1,150.58c0,0,37.61,72.43,205.51,81.03c0,0-76.7,3.74-139.01-13.31
			c0,0,15.84,10.94,75.62,18.91c19.93,2.66,67.84,4.09,90.87,5.87c62.33,4.81,66.95,12.54,95.81,31.21c0,0,19.36,9.69,21.44,44.28
			c0,0,34.84-52.51-24.32-98.97"/>
		
			<linearGradient id="SVGID_00000100359301896963631950000008376487857344042134_" gradientUnits="userSpaceOnUse" x1="275.9986" y1="315.1241" x2="568.1376" y2="315.1241">
			<stop  offset="0" style="stop-color:#171531"/>
			<stop  offset="0.3367" style="stop-color:#312A78"/>
			<stop  offset="0.544" style="stop-color:#3F489D"/>
			<stop  offset="0.712" style="stop-color:#292657"/>
			<stop  offset="1" style="stop-color:#150F21"/>
		</linearGradient>
		<path style="fill:url(#SVGID_00000100359301896963631950000008376487857344042134_);stroke:#36257E;stroke-miterlimit:10;" d="
			M567.15,278.96c-19.71,55.15-60.32,82.85-110.15,90.75c-29.9,4.74-66.97-1.48-94.1-2.43c-52.79-1.84-86.9-0.35-86.9-0.35
			s15.12-18.15,63.48-32.81c29.93-9.07,80.27-12.56,110-24.07c32.01-12.4,46.2-32.15,41.78-51.28c0,0,4,5.19,9.32,20.95
			c0,0,2.39-1.31,3.71-12.33c0,0,6.91,43.16-12.61,65.51c0,0,38.75-8.3,76.46-56.3"/>
		<path class="st19" d="M489.38,254.97c0,0,1.2,2.03,2.8,5.05c0.44,0.83,0.92,1.74,1.41,2.71c2.7,5.31,5.83,12.24,6.63,17.1
			c0,0,3.05-9.12,3.34-13.31c0,0,15.13,40.26-10.94,64.81c0,0,19.31-30.3,11.68-53.67c0,0-1.89,4.99-3.91,5.13
			c0,0-4.75-14.75-7.8-19.47"/>
		
			<linearGradient id="SVGID_00000029013364871999612360000013384321863691006875_" gradientUnits="userSpaceOnUse" x1="244.5149" y1="303.737" x2="414.1968" y2="303.737">
			<stop  offset="0" style="stop-color:#35297E"/>
			<stop  offset="0.2529" style="stop-color:#312B78"/>
			<stop  offset="0.4599" style="stop-color:#312775"/>
			<stop  offset="0.5856" style="stop-color:#302A77"/>
			<stop  offset="0.7556" style="stop-color:#342F82"/>
			<stop  offset="1" style="stop-color:#383087"/>
		</linearGradient>
		<path style="fill:url(#SVGID_00000029013364871999612360000013384321863691006875_);stroke:#2C1962;stroke-miterlimit:10;" d="
			M414.2,317.16c0,0-8.24,0.82-19.3-0.04c-33.38-2.6-104.64-8.36-150.38-0.68c0,0,12.22-3.69,26.63-9.5
			c24.03-9.68,59.49-22.55,93.77-14.4c0,0,36.81,7.45,46.96,22.91"/>
		<path class="st21" d="M404.18,318.54l-9.45,0.37c0,0-91.05-7.83-164.14,0.57c0,0,75.47-13.31,171.35-1.77"/>
		<path class="st16" d="M363.14,292.33c0,0-41.12-3.54-72.82,5c0,0,17.13-8.14,32.2-11.01c0,0-106.38-13.38-171.01-57.32
			c-5.03-3.42-10.8-6.03-15.23-9.84c0,0,6.42,4.83,19.86,12.12c16.19,8.78,42.56,21.12,80.16,32.89
			c19.99,6.25,47.72,10.97,73.12,16.6c18.36,4.07,34.08,5.64,52.69,10.36"/>
		
			<linearGradient id="SVGID_00000053540746275515737450000007263290056494924418_" gradientUnits="userSpaceOnUse" x1="21.9564" y1="173.3938" x2="431.1728" y2="173.3938">
			<stop  offset="0" style="stop-color:#77A5C8"/>
			<stop  offset="0.2184" style="stop-color:#6EAFCC"/>
			<stop  offset="0.3986" style="stop-color:#75B6CF"/>
			<stop  offset="0.5374" style="stop-color:#75B8D1"/>
			<stop  offset="0.6553" style="stop-color:#B2DAE4"/>
			<stop  offset="1" style="stop-color:#50A3C8"/>
		</linearGradient>
		<path style="fill:url(#SVGID_00000053540746275515737450000007263290056494924418_);" d="M426.83,269.56c0,0,0.24-1.59-0.7-5.17
			s-3.04-9.14-7.71-17.09c-14.35-24.36-58.34-67.02-209.41-111.64c-2.37-0.7-34.77-10.4-37.18-11.1
			c-27.66-8.01-96.04-18.32-149.87-47.34c0,0,59.95,34.41,163.53,59.54c98.1,23.8,206.4,71.76,245.69,132.69"/>
		
			<linearGradient id="SVGID_00000112630535362643449230000013727986666958927760_" gradientUnits="userSpaceOnUse" x1="139.9625" y1="240.3433" x2="392.3927" y2="240.3433">
			<stop  offset="0" style="stop-color:#3D60AC"/>
			<stop  offset="0.1971" style="stop-color:#3969AE"/>
			<stop  offset="0.3684" style="stop-color:#3D84B8"/>
			<stop  offset="0.494" style="stop-color:#5FAFCC"/>
			<stop  offset="0.612" style="stop-color:#A0D4E4"/>
			<stop  offset="0.8343" style="stop-color:#9FD4E5"/>
			<stop  offset="1" style="stop-color:#5FB3CD"/>
		</linearGradient>
		<path style="fill:url(#SVGID_00000112630535362643449230000013727986666958927760_);" d="M365.66,257.39
			c0,0-24.99-10.63-67.1-13.1c-79.6-4.67-127.17-10.35-158.6-25.44c0,0,26.49,7.94,58.08,10.82c12.67,1.16,51.35,1.56,54.61,1.91
			c64.82,6.99,107.28,11.83,139.74,30.25"/>
		
			<linearGradient id="SVGID_00000096032660342909322260000009433876243752946096_" gradientUnits="userSpaceOnUse" x1="137.8312" y1="230.1826" x2="418.1316" y2="230.1826">
			<stop  offset="0" style="stop-color:#3B63AC"/>
			<stop  offset="0.2022" style="stop-color:#3969AE"/>
			<stop  offset="0.3546" style="stop-color:#3E88BA"/>
			<stop  offset="0.5243" style="stop-color:#5EAFCC"/>
			<stop  offset="1" style="stop-color:#9DD4E4"/>
		</linearGradient>
		<path style="fill:url(#SVGID_00000096032660342909322260000009433876243752946096_);" d="M227.68,233.65
			c-16.77-1.15-55.71-5.03-89.85-16.19c0,0,32.01,13.57,54.68,18.71c0,0,26.06,4.28,45.9,5.34c21.06,1.13,46.35,2.02,61.19,0.88
			C267.47,237.12,243.73,234.74,227.68,233.65z"/>
		
			<linearGradient id="SVGID_00000061435314731140775350000011425840311875005593_" gradientUnits="userSpaceOnUse" x1="137.8312" y1="242.5227" x2="418.1316" y2="242.5227">
			<stop  offset="0" style="stop-color:#3B63AC"/>
			<stop  offset="0.2022" style="stop-color:#3969AE"/>
			<stop  offset="0.3546" style="stop-color:#3E88BA"/>
			<stop  offset="0.5243" style="stop-color:#5EAFCC"/>
			<stop  offset="1" style="stop-color:#9DD4E4"/>
		</linearGradient>
		<path style="fill:url(#SVGID_00000061435314731140775350000011425840311875005593_);" d="M304.23,241.92
			c-1.4,0.18-2.95,0.34-4.64,0.47c1.46,0.24,2.95,0.49,4.45,0.74C304.09,242.72,304.15,242.32,304.23,241.92z"/>
		<path class="st8" d="M541.76,308.82c-7.11,11.62-11.13,22.36-17.59,39.16c-39.26,102.21-388.45,41.46-473.99,68.73"/>
		<path class="st8" d="M623.49,222.92c0,0-43.45,21.11-68.55,67.95"/>
		<path class="st19" d="M633.59,242.96l-17.83,9.64l6.85-29.06c0,0-20.53,9.26-38.09,30.2c-5.47,6.52-18.46,27.1-21.53,36.76
			c-2.43,7.64-11.67,20.38-16.26,26.09c-22.01,27.38-41.64,40.33-55.07,45.68c0,0-25.54,14.55-107.4,7.99
			c0,0-177.21-26.78-342.79,49.34c0,0,191.01-80.03,425.1-33.49c0,0,25.28,6.53,52.91,2.7c0,0,42.93-16.45,64.88-74.5
			c16.87-44.59,40.94-60.43,52.28-66.62"/>
		
			<linearGradient id="SVGID_00000147927224878403704390000011278373113064411291_" gradientUnits="userSpaceOnUse" x1="450.6671" y1="324.4146" x2="603.9757" y2="324.4146">
			<stop  offset="0" style="stop-color:#1C1843"/>
			<stop  offset="0.3418" style="stop-color:#1E1E45"/>
			<stop  offset="0.6412" style="stop-color:#283165"/>
			<stop  offset="1" style="stop-color:#242859"/>
		</linearGradient>
		<path style="fill:url(#SVGID_00000147927224878403704390000011278373113064411291_);" d="M603.21,268.52
			c-29.9,61.68-63.85,108.52-80.93,114.09c-30.8,10.03-71.61-6.01-71.61-6.01s51.18,7.77,124.5-82.55
			c7.76-9.56,20.71-19.22,28.8-31.12"/>
		<path class="st5" d="M373.02,170.82c4.17,3.79,6.37,8.42,10.54,11.86c11.62,9.57,25.02,16.63,35.08,22.36
			c49.15,27.99,80.91,18.2,80.91,18.2s-15.66,7.27-71.26-14.04"/>
		<path class="st28" d="M620.85,205.11c0,0-10.23-8.26-26.09-17.66c0,0,0,0,0,0c-19.74-11.71-48.21-25.21-76.53-26.78
			c0,0-23.26-2.72-54.2-4.75c-33.05-2.17-74.58-3.98-96.7-14.59c0,0,72.15,43.06,160.29,47.86c8.08,0.44,24.06-3.8,35.18-3.42
			c12.54,0.43,20.25,5.38,29.17,3.87"/>
		<path class="st5" d="M359.18,136.12c0,0,0.59,0.62,1.68,1.72c0.52,0.53,1.16,1.16,1.9,1.89c9.66,9.51,37.13,34.84,60.26,39.75
			l7.59,0.02c0,0-21.33,0.17-63.55-39.1"/>
		<path class="st29" d="M607.16,196.78c0,0-9.17-16.28-82.37-10.56c-10.49,0.82-17.03,0.26-27.38-0.97c0.12,0.65-4.25-1.2-4.13-0.56
			c8.09,1.41,23.06,5.16,34.73,5.19c47.35,0.11,74.44,4.5,96.29,27.16L607.16,196.78z"/>
		
			<linearGradient id="SVGID_00000098923894388125097810000018223644216035466645_" gradientUnits="userSpaceOnUse" x1="141.1425" y1="267.8863" x2="425.1843" y2="267.8863">
			<stop  offset="0" style="stop-color:#3C318F"/>
			<stop  offset="0.2782" style="stop-color:#3D3A95"/>
			<stop  offset="0.5329" style="stop-color:#3D449B"/>
			<stop  offset="1" style="stop-color:#3E449C"/>
		</linearGradient>
		<path style="fill:url(#SVGID_00000098923894388125097810000018223644216035466645_);stroke:#323083;stroke-miterlimit:10;" d="
			M415.83,316.11c0,0-10.45-24.88-60.83-29.36c-69.65-6.2-165.24-33.67-213.86-67.49c0,0,32.05,17.88,84.05,20.88
			c21.04,1.22,54.49,1.89,67.6,3.17c62.37,6.05,92.74,16.95,111.43,37.26C443.24,322.97,415.83,316.11,415.83,316.11z"/>
		<path class="st10" d="M605.39,194.08c0,0-14.88-8.34-38.53-10.07c-17.06-1.25-40.25,1.56-62.47-0.45
			c-48.79-4.41-100.54-16.8-126.29-38.5c0,0,20.9,13.34,58.41,10.3c56.16-4.55,133.95,11.94,172,39.89"/>
		<path id="shadow_y" class="st33" d="M491.37,433.39c0,0-57.24-10.27-117-16.46c-38.95-4.03-88.22,3.16-94.47,4.78
			c0,0,62.97-27.52,134.92-20.69c0,0,68.4,13,90.06,15.43c16.4,1.83,36.29-0.87,45.71-3.11L491.37,433.39z"/>
		<path id="tiny_tail_shadow" class="st34" d="M279.87,420.9c0,0-100.88,19.53-231.47,70.15C48.4,491.05,232.38,416.64,279.87,420.9
			z"/>
		<path id="light_yellow_shadow" class="st35" d="M414.41,399.99c0,0-15.6-2.72-50.98,1.81c-7.46,0.96-19.36,2.47-29.31,4.4
			c-16.89,3.28-33.84,7.79-55.04,12.88c-13.27,3.19-23.66,3.96-39.21,8.42c0,0,23.59-7,52.65-14.74c7.64-2.03,23.68-7.11,32.06-9.05
			c25.16-5.82,45.43-7.41,75.24-5.87"/>
		<path class="st36" d="M531.42,388.26c0,0,72.36,13.36,124.81-84.52c7.21-15.75-28.95,86.84-118.7,87.28"/>
		
			<linearGradient id="tail_db_00000103239425502682574230000005334671032973853591_" gradientUnits="userSpaceOnUse" x1="160.095" y1="485.8072" x2="429.5345" y2="485.8072">
			<stop  offset="0" style="stop-color:#2C215F"/>
			<stop  offset="0.5568" style="stop-color:#3E4799"/>
			<stop  offset="0.7313" style="stop-color:#2E2770"/>
			<stop  offset="1" style="stop-color:#29215E"/>
		</linearGradient>
		<path id="tail_db" style="fill:url(#tail_db_00000103239425502682574230000005334671032973853591_);" d="M428.55,436.42
			C359.27,504.25,75.4,538.79,73.81,538.97c0,0,132.29-51.97,236.44-83.2C378.42,435.33,437.96,427.21,428.55,436.42z"/>
		
			<linearGradient id="tail_lb_00000176762504883129625250000002251232896200045476_" gradientUnits="userSpaceOnUse" x1="78.4516" y1="484.3377" x2="436.9775" y2="484.3377">
			<stop  offset="0" style="stop-color:#4152A6"/>
			<stop  offset="0.2728" style="stop-color:#4152A6"/>
			<stop  offset="0.4916" style="stop-color:#3F4EA3"/>
			<stop  offset="0.6542" style="stop-color:#3E499F"/>
			<stop  offset="0.8271" style="stop-color:#3D459C"/>
			<stop  offset="1" style="stop-color:#3E459D"/>
		</linearGradient>
		
			<path id="tail_lb" style="fill:url(#tail_lb_00000176762504883129625250000002251232896200045476_);stroke:#291862;stroke-miterlimit:10;" d="
			M407.29,432.81C234.6,422.38,78.45,536.54,78.45,536.54s51.86-21.66,120.58-46.4c28.57-10.28,59.22-23.58,91.59-32.12
			c50.12-13.23,100.37-25.44,146.35-21.32"/>
		<path id="tail_tiny_shadow" class="st39" d="M408.69,433.81c0,0-3.07-0.53-8.6-1.2c-0.33-0.04-2.85-0.24-7-0.5
			c-16.9-1.04-60.79-2.98-93.1,1.6l-1.95,3.65c0,0-79.36,17.85-124.42,43.13c0,0,118.91-57.44,219.21-46.07"/>
		
			<linearGradient id="tail_lb_shadow_00000147180188071855516350000006546158952480926890_" gradientUnits="userSpaceOnUse" x1="106.4619" y1="513.1227" x2="285.555" y2="435.1151">
			<stop  offset="0" style="stop-color:#5197C4"/>
			<stop  offset="0.1842" style="stop-color:#4890C0"/>
			<stop  offset="0.4176" style="stop-color:#3D7DB4"/>
			<stop  offset="0.6372" style="stop-color:#3E60AB"/>
			<stop  offset="0.8434" style="stop-color:#4158A8"/>
			<stop  offset="1" style="stop-color:#4051A5"/>
		</linearGradient>
		<path id="tail_lb_shadow" style="fill:url(#tail_lb_shadow_00000147180188071855516350000006546158952480926890_);" d="
			M69.5,538.15c0,0,0.52-0.33,1.52-0.94c1.72-1.07,4.87-3,9.26-5.63c0.76-0.45,1.55-0.92,2.38-1.42
			c33.4-19.83,124.85-71.42,209.96-95.02c0,0-89.36,13.18-191.25,81.35c-2.69,1.8-6.39,4.64-9.09,6.51
			c-2.54,1.76-4.08,2.56-6.63,4.39"/>
		
			<linearGradient id="SVGID_00000044890662504376903410000002077277986985445774_" gradientUnits="userSpaceOnUse" x1="246.4548" y1="454.6936" x2="297.4527" y2="432.4805">
			<stop  offset="0" style="stop-color:#5197C4"/>
			<stop  offset="0.1842" style="stop-color:#4890C0"/>
			<stop  offset="0.4176" style="stop-color:#3D7DB4"/>
			<stop  offset="0.6372" style="stop-color:#3E60AB"/>
			<stop  offset="0.8434" style="stop-color:#4158A8"/>
			<stop  offset="1" style="stop-color:#4051A5"/>
		</linearGradient>
		<polyline style="fill:url(#SVGID_00000044890662504376903410000002077277986985445774_);" points="292.34,434 300,433.71 
			298.04,437.36 233.12,455.36 273.44,440.79 		"/>
		<path id="shadow_tail" class="st19" d="M124.59,531.93c-20.59,2.58-39.13,3.3-56.99,8.27c0,0,198.15-24.69,377.36-99.45
			c0,0-89.17-31.61-181.13-14.12c0,0,21.24-24.49,186.05-0.37c11.21,1.64,29.04,8.68,42.55,6.6c0,0-55.89,16.82-117.26,39.6
			c-80.75,29.97-165.92,51.51-279,62.21"/>
		<path class="st42" d="M431.93,436.54c0,0-1.33-0.43-3.88-1.14c-16.51-4.59-84.09-20.89-170.1-7.81c0,0,48.99-21.39,169.64-4.45
			c14.12,1.98,43.62,8.5,60.95,9.27c0,0-17.85,4.38-44.86,13.19c-12.1,3.95-26.04,8.79-41.04,14.52c-1.55,0.59-3.1,1.19-4.67,1.8
			c-42.83,16.67-12.58,3.01-12.58,3.01s8.92-4.34,19.42-10.47c9.32-5.44,8.51-7.13,27.58-20.59"/>
		<path id="db_beak" class="st5" d="M691.34,224.68c0,0-0.79,0.03-2.24,0.18c-12.07,1.24-69.9,10.9-101.48,83.71
			c-2.02,0.29-22.85,58.56-66.58,78.78c0,0,7.92-0.83,15.91,2.57c0.33,0.14,0.65,0.28,0.98,0.44c0,0-14.25,2.18-31.65,2.06
			c-10.44-0.07-17.54-0.34-35.92-4.19c-9.65-2.02-27.85-6-44.39-9.14c-14.23-2.7-27.24-4.76-32.51-4.41c0,0-27.52-3.27-60.32-4.28
			c-44.13-1.37-101.45,0.53-148.7,12.26c0,0-86.97,14.5-145.17,39.68c0,0,133.3-64.46,290.04-56.35c0,0,25.97,0.43,44.69,1.97
			c23.53,1.94,43.14,5.07,70.45,4.78c24.31-0.26,35.61-4.69,56.36-13.92c0,0,41.74-22.92,66.53-80.56c0,0,19.93-40.84,56.13-54.61
			c0,0,4.76-6.79-0.19-16.71c0,0,19.31-1.55,63.75,16.25"/>
		
			<linearGradient id="lower_beak_00000082340136075883856410000005124462420466648457_" gradientUnits="userSpaceOnUse" x1="618.2019" y1="234.396" x2="683.514" y2="234.396">
			<stop  offset="0" style="stop-color:#F1F560"/>
			<stop  offset="0.3004" style="stop-color:#F4D746"/>
			<stop  offset="0.6042" style="stop-color:#F2A741"/>
			<stop  offset="1" style="stop-color:#EDA940"/>
		</linearGradient>
		<path id="lower_beak" style="fill:url(#lower_beak_00000082340136075883856410000005124462420466648457_);" d="M618.2,244.62
			c0,0,31.67-19.56,65.31-20.25c0,0-44.34-1.78-58.37,5.42L618.2,244.62z"/>
		
			<linearGradient id="Uppebeak_00000133503976182295967960000009856683859807259051_" gradientUnits="userSpaceOnUse" x1="627.9548" y1="218.6294" x2="684.5823" y2="218.6294">
			<stop  offset="0" style="stop-color:#F3DC47"/>
			<stop  offset="0.5" style="stop-color:#ECB741"/>
			<stop  offset="1" style="stop-color:#EDAA40"/>
		</linearGradient>
		<path id="Uppebeak" style="fill:url(#Uppebeak_00000133503976182295967960000009856683859807259051_);" d="M628.99,213.35
			c0,0,9.29-5.61,55.59,10.8c0,0-7.2-0.73-14.33-1.34c-4.81-0.41-8.22-0.77-14.54-0.81c-5.39-0.04-11.57,0.15-17.04,0.73
			c-4.24,0.45-8.05,1.13-10.71,2.11c0,0,1.89-4.95,2.02-6.29L628.99,213.35z"/>
		
			<linearGradient id="shadow_00000115490727293239570330000004677720860314699187_" gradientUnits="userSpaceOnUse" x1="461.3218" y1="395.9906" x2="611.9408" y2="289.0872">
			<stop  offset="0" style="stop-color:#1C1843"/>
			<stop  offset="0.4151" style="stop-color:#222552"/>
			<stop  offset="0.7075" style="stop-color:#283467"/>
			<stop  offset="1" style="stop-color:#26285B"/>
		</linearGradient>
		<path id="shadow" style="fill:url(#shadow_00000115490727293239570330000004677720860314699187_);" d="M544.72,330.24
			c-31.19,36.85-67.13,48.55-90.65,47.98c-39.12-0.94,33.12,5.98,57.22,8.22c2.84-0.38,5.63-1.08,8.29-2.23
			c0.22-0.09,0.43-0.15,0.65-0.2l1.81-1.01c40.67-21.06,80.41-117.44,80.41-117.44S577.66,291.32,544.72,330.24z"/>
		
			<linearGradient id="SVGID_00000082360980315162393780000003555849621298795650_" gradientUnits="userSpaceOnUse" x1="364.3733" y1="181.1171" x2="545.7833" y2="181.1171">
			<stop  offset="0" style="stop-color:#3C208F"/>
			<stop  offset="0.3868" style="stop-color:#181539"/>
			<stop  offset="1" style="stop-color:#3E3D9A"/>
		</linearGradient>
		<path style="fill:url(#SVGID_00000082360980315162393780000003555849621298795650_);stroke:#1B153B;stroke-miterlimit:10;" d="
			M499.37,221.81c0,0-51.42,16.14-126.38-51.18c0,0,31.73,20.39,68.98,10.41c0,0-27.89,4.06-77.59-43.34
			c0,0,87.31,52.26,181.41,58.88l-43.7,27.95"/>
		<path class="st5" d="M422.04,310.98c0,0,30.21-33.06-28.88-93.51c0,0,19.45,6.02,32.99-7.22c0,0,3.45,11.03-22.97,11.73
			c0,0,44.69,36.91,24.02,83.52L422.04,310.98z"/>
		<path class="st8" d="M428.79,212.04c0,0,39.45,20.16,70.8,11.47"/>
		<path class="st5" d="M498.73,221.79c0,0-50.14,16.36-126.29-51.3c0,0,25.81,26.44,50.29,39.11c0,0,39.9,19.21,75.08,14.37"/>
		<path class="st19" d="M417.6,178.46c0,0-41.74-18.35-56.77-42.68c0,0,37.3,37.05,68.32,43.9L417.6,178.46z"/>
		
			<linearGradient id="SVGID_00000108296790635134665050000013226922214171130520_" gradientUnits="userSpaceOnUse" x1="78.4513" y1="361.0539" x2="404.075" y2="361.0539">
			<stop  offset="0" style="stop-color:#1E1941"/>
			<stop  offset="1" style="stop-color:#2E276D"/>
		</linearGradient>
		<path style="fill:url(#SVGID_00000108296790635134665050000013226922214171130520_);stroke:#2E2A74;stroke-miterlimit:10;" d="
			M398.95,320.46c0,0-152.91,15.96-320.5,84.26c0,0,123.48-35.09,191.21-38.4c0,0,41.19-29.01,134.41-48.93"/>
	</g>
</g>
</svg>
