<?xml version="1.0" encoding="utf-8"?>
<!-- Generator: Adobe Adobe Illustrator 29.2.0, SVG Export Plug-In . SVG Version: 6.00 Build 0)  -->
<svg version="1.1" xmlns="http://www.w3.org/2000/svg" xmlns:xlink="http://www.w3.org/1999/xlink" x="0px" y="0px"
	 width="1051.58px" height="1120px" viewBox="0 0 1051.58 1120" style="enable-background:new 0 0 1051.58 1120;"
	 xml:space="preserve">
<style type="text/css">
	.st0{fill:#1C163C;}
	.st1{font-family:'ProximaNovaHebrew-Semibold';}
	.st2{font-size:170px;}
	.st3{font-size:70px;}
	.st4{font-size:63.4168px;}
	.st5{font-size:51.3617px;}
	.st6{display:none;}
	.st7{display:inline;fill:url(#SVGID_1_);}
	.st8{fill:#18163A;}
	.st9{display:inline;fill:none;}
	.st10{fill:url(#shadow_head_light_00000013164122703812899250000009397565944247923330_);stroke:#45889E;stroke-miterlimit:10;}
	.st11{fill:#1B153B;}
	.st12{fill:#3F4CA2;}
	.st13{fill:url(#SVGID_00000044166587896017260740000009501566245094597298_);}
	.st14{fill:url(#SVGID_00000016046416172488052150000002532005460452067213_);}
	.st15{fill:none;}
	.st16{fill:url(#SVGID_00000056388429135668690370000017419197265250504856_);}
	.st17{fill:#F5DA47;}
	.st18{fill:#FFFFFF;}
	.st19{fill:#18153B;}
	.st20{fill:url(#SVGID_00000150094178725167010920000002724469867297541288_);stroke:#2E3673;stroke-miterlimit:10;}
	.st21{fill:url(#SVGID_00000150783864146148715410000013884358887182423995_);stroke:#36257E;stroke-miterlimit:10;}
	.st22{fill:#18153A;}
	.st23{fill:url(#SVGID_00000032615440378533676270000010384641390062931094_);stroke:#2C1962;stroke-miterlimit:10;}
	.st24{fill:#1A1646;}
	.st25{fill:url(#SVGID_00000095319173191211538780000009561771927311738253_);}
	.st26{fill:url(#SVGID_00000063624231070466574820000017748885747994109585_);}
	.st27{fill:url(#SVGID_00000057867785525608065620000015655782626841633438_);}
	.st28{fill:url(#SVGID_00000024715881825385642620000016507772039236269503_);}
	.st29{fill:url(#SVGID_00000173853586154807236980000006614327346909276296_);}
	.st30{fill:#404FA4;}
	.st31{fill:#404FA4;stroke:#2D2D73;stroke-miterlimit:10;}
	.st32{fill:#3B338F;stroke:#3A2887;stroke-miterlimit:10;}
	.st33{fill:url(#SVGID_00000020375831847403727410000002535763707713346464_);stroke:#323083;stroke-miterlimit:10;}
	.st34{fill:url(#SVGID_00000075139142575144651630000009772923586777415815_);}
	.st35{fill:url(#SVGID_00000075135955959260251830000013222404891749112488_);}
	.st36{fill:#F0B242;}
	.st37{fill:#945420;}
	.st38{fill:#EEEA85;}
	.st39{fill:#B3652A;}
	.st40{fill:url(#tail_db_00000077299103089203012380000013369826176099742369_);}
	.st41{fill:url(#tail_lb_00000154404345880186726160000007130665096065216897_);stroke:#291862;stroke-miterlimit:10;}
	.st42{fill:#322E7D;}
	.st43{fill:url(#tail_lb_shadow_00000041974921711234005510000017509173496621833360_);}
	.st44{fill:url(#SVGID_00000106866371304244684360000016933169534909284529_);}
	.st45{fill:#19173C;}
	.st46{fill:url(#lower_beak_00000051376216104835815830000007484527456256032698_);}
	.st47{fill:url(#Uppebeak_00000093147016964109901170000002791022103893847443_);}
	.st48{fill:url(#shadow_00000072981834450409297100000005349327706478064537_);}
	.st49{fill:url(#SVGID_00000089537452113357181920000005169494055501448110_);stroke:#1B153B;stroke-miterlimit:10;}
	.st50{fill:url(#SVGID_00000041285441927924818220000014588329871461427075_);}
	.st51{fill:url(#SVGID_00000109714661706921636320000006745347857564618900_);}
	.st52{fill:url(#SVGID_00000020389728216699897570000006220312792018124725_);stroke:#2E2A74;stroke-miterlimit:10;}
	
		.st53{fill:url(#shadow_head_light_00000054258170015236067080000011096913338033062040_);stroke:#45889E;stroke-width:1.3473;stroke-miterlimit:10;}
	.st54{fill:url(#SVGID_00000074404771391627276180000006649446221455529385_);}
	.st55{fill:url(#SVGID_00000085958907887533236630000016695102513638452385_);}
	.st56{fill:url(#SVGID_00000089556735398149351960000013750877203969073822_);}
	
		.st57{fill:url(#SVGID_00000111885977152339430800000012878279713310429114_);stroke:#2E3673;stroke-width:1.3473;stroke-miterlimit:10;}
	
		.st58{fill:url(#SVGID_00000168837179191179505410000017237357085552767363_);stroke:#36257E;stroke-width:1.3473;stroke-miterlimit:10;}
	
		.st59{fill:url(#SVGID_00000053535875143476355230000017073303168020967321_);stroke:#2C1962;stroke-width:1.3473;stroke-miterlimit:10;}
	.st60{fill:url(#SVGID_00000124841199571688734010000003977084248516381854_);}
	.st61{fill:url(#SVGID_00000139992935070833973630000002490889304537771450_);}
	.st62{fill:url(#SVGID_00000096755871346327523400000015493229844765807540_);}
	.st63{fill:url(#SVGID_00000140002947976887661820000014390762991406265261_);}
	.st64{fill:url(#SVGID_00000067941780357423937140000000338856731663814820_);}
	.st65{fill:#404FA4;stroke:#2D2D73;stroke-width:1.3473;stroke-miterlimit:10;}
	.st66{fill:#3B338F;stroke:#3A2887;stroke-width:1.3473;stroke-miterlimit:10;}
	
		.st67{fill:url(#SVGID_00000156588363283248324480000016721351978077654401_);stroke:#323083;stroke-width:1.3473;stroke-miterlimit:10;}
	.st68{fill:url(#SVGID_00000039824465252145687250000005524456201213562030_);}
	.st69{fill:url(#SVGID_00000009568077482729372300000007463759340474889621_);}
	.st70{fill:url(#tail_db_00000026135720484909493030000008614251272934754461_);}
	
		.st71{fill:url(#tail_lb_00000034779947271817888480000014315576774025850249_);stroke:#291862;stroke-width:1.3473;stroke-miterlimit:10;}
	.st72{fill:url(#tail_lb_shadow_00000042708106149924123940000001954184846180358542_);}
	.st73{fill:url(#SVGID_00000067956297847230972610000001484143271579977111_);}
	.st74{fill:url(#lower_beak_00000093871333690549420030000004277108989115992978_);}
	.st75{fill:url(#Uppebeak_00000135690923893974714970000016523795116305564813_);}
	.st76{fill:url(#shadow_00000108271956573388498610000010973508350216615585_);}
	
		.st77{fill:url(#SVGID_00000137133119124570339180000002305519160546741644_);stroke:#1B153B;stroke-width:1.3473;stroke-miterlimit:10;}
	.st78{fill:url(#SVGID_00000178897055677694944720000009866161614566319254_);}
	.st79{fill:url(#SVGID_00000076586479259372255740000015272331731980781716_);}
	
		.st80{fill:url(#SVGID_00000037683706876092786040000003781443696598757801_);stroke:#2E2A74;stroke-width:1.3473;stroke-miterlimit:10;}
</style>
<g id="Layer_30">
	<text transform="matrix(1.36 0 0 1 135.3867 811.5977)" class="st0 st1 st2">RETRIX</text>
	<text transform="matrix(1.51 0 0 1.24 101.9775 911.2373)"><tspan x="0" y="0" class="st0 st1 st3"> PILOT TRAINING</tspan><tspan x="545.01" y="0" class="st0 st1 st4"> </tspan><tspan x="260.27" y="52.42" class="st0 st1 st4">&amp;</tspan><tspan x="24.87" y="136.59" class="st0 st1 st5">AVIATION ACADEMY</tspan><tspan x="520.14" y="136.59" class="st0 st1 st4"> </tspan></text>
</g>
<g id="tail_last">
</g>
<g id="Layer_1">
	<g id="full_bird">
	</g>
	<g id="yellow_main">
	</g>
	<g id="shadow_oj">
	</g>
	<g id="tail_dark_shadow">
	</g>
	<g id="gold_slash">
	</g>
	<g id="white_blank">
	</g>
	<g id="white_above_eye">
	</g>
	<g id="eye_db">
	</g>
	<g id="eye1">
	</g>
	<g id="big_wing">
	</g>
	<g id="bird_big_side">
	</g>
	<g id="bird_big_side_shadow">
	</g>
	<g id="wing_low">
	</g>
	<g id="winglow_shadow">
	</g>
	<g id="wing_low_shadow_2">
	</g>
	<g id="top_wing_light_shadow">
	</g>
	<g id="_x32_nd_wing_light_shadow" class="st6">
	</g>
	<g id="_x33_rd_wing_light_shadow">
	</g>
	<g id="_x33_rd_wing_shadow">
	</g>
	<g id="neck_shadow_2">
	</g>
	<g id="neck_light_shadow">
	</g>
	<g id="shadow_face">
	</g>
	<g id="top">
	</g>
	<g id="face_shadow">
	</g>
	<g id="faceshadow">
	</g>
	<g id="Layer_31">
	</g>
	<g id="head-blue">
	</g>
	<g id="shadow_side" class="st6">
	</g>
</g>
<g id="Layer_34">
</g>
<g id="Layer_35">
</g>
<g id="Layer_36">
</g>
<g id="Layer_33">
</g>
<g id="Layer_32">
	<g>
		
			<linearGradient id="shadow_head_light_00000173878715264768230810000015298932851013425798_" gradientUnits="userSpaceOnUse" x1="523.2578" y1="159.0625" x2="861.6015" y2="159.0625">
			<stop  offset="0" style="stop-color:#4C77B2"/>
			<stop  offset="0.3061" style="stop-color:#8FC3D9"/>
			<stop  offset="1" style="stop-color:#4EA1C8"/>
		</linearGradient>
		
			<path id="shadow_head_light_00000171715854144077777450000014478468611213344661_" style="fill:url(#shadow_head_light_00000173878715264768230810000015298932851013425798_);stroke:#45889E;stroke-width:1.3473;stroke-miterlimit:10;" d="
			M861.6,208.43c0,0-85.33-83.65-169.8-81.29c-118.79,3.32-155.06-13.08-168.54-17.44c0,0,22.06,11.52,51.11,17.37
			c13.29,2.68,43.12,4.6,78.82,7.2c62.46,4.55,143.52,15.5,184.77,55.63"/>
		<rect x="195.61" y="744.74" class="st15" width="606.43" height="87.75"/>
		<path class="st11" d="M143.68,676.75c0,0,188.79-183.18,437.81-154.33L143.68,676.75z"/>
		<path class="st12" d="M259.01,247.17c3.5,2.32,7.18,4.56,11,6.74c83.81,47.66,238.65,61.59,199.18,71.34
			c-18.69,4.62-64.07,21.75-82.79,29.36c-32.21,13.1-55.66,15.02-31.25,11.92c112.54-14.28,209.15,0.11,209.15,0.11
			S337.2,376.69,107.95,510.85c0,0,183.79-96.26,462.65-68.06c21.66,2.19,58.14,11.12,87.71,18.88c37.51,9.84,64.85,7.65,93.33,5.98
			c0,0-21.75-3.99-21.61-6.86c0,0,37.76-24.18,60.52-64.4c6.11-10.8,26.38-73.04,62.98-112.59c32.73-35.38,81.62-48.95,95.03-50.38
			c0,0-62.16-23.97-89.3-26.88c0,0-13.59-12.4-32.96-27.86c-20.98-16.75-50.52-37.1-125.63-49.21c-6.42-1.04-43.07,0.09-47.86-1.21
			c-6.13-1.67-33.58,15.42-130.55-18.87c0,0,48.62,47.35,76.53,59.17c0,0-16.73,8.13-61.77-10.48c0,0,43.3,43.29,67.77,55.52
			c0,0,0.98,13.74-42.94,12.22c0,0-23.13-54.15-244.92-122.98C287.43,93.7,190.29,81.71,82.2,22.81c0,0,8.08,36.17,54.17,72.55
			c36.65,28.94,93.71,61.09,199.77,76.29c62.23,8.92,62.27,15.8,97.32,20.72c0,0-30-3.31-68.27-7.73
			c-73.68-8.5-184.98-24.88-220.81-56.23c0,0,60.16,107.79,258.38,114.65c0,0-95.16,5.65-169.12-18.6"/>
		<linearGradient id="SVGID_1_" gradientUnits="userSpaceOnUse" x1="92.9503" y1="470.5878" x2="960.1192" y2="470.5878">
			<stop  offset="0" style="stop-color:#F0E247"/>
			<stop  offset="0.3483" style="stop-color:#F0E147"/>
			<stop  offset="0.4998" style="stop-color:#F0E247"/>
			<stop  offset="0.7347" style="stop-color:#F3DE47"/>
			<stop  offset="1" style="stop-color:#EEEA8E"/>
		</linearGradient>
		<path style="fill:url(#SVGID_1_);" d="M724.47,524.88c0,0-1.75,0.85-5.06,2.43c-2.28,1.09-5.3,2.53-9,4.28
			c-40.02,18.93-159.76,74.39-285.15,120.84c0,0,237.18-69.05,275.6-86.54c39.58-18.02,88.78-39.27,123.29-64.12
			c33.84-24.38,50.3-41.75,73.23-73.58c22.25-30.89,46.57-100.86,62.75-139.46l-43.39,16.27l7.07,6.07c0,0,20.25,27.48-42.43,112.21
			c0,0-63.81,82.05-198.85,62.74c0,0-54.86-14.12-116.1-23.26c-93.4-13.93-234.18-6.94-473.47,152.76c0,0,76.2-34.53,178.66-67.28
			c79.69-25.47,162.41-50.69,278.15-44.84c37.56,1.9,98,24.71,145.95,21.1l43.68-0.7"/>
		
			<linearGradient id="SVGID_00000070839044202732728970000010467741553763665300_" gradientUnits="userSpaceOnUse" x1="450.8529" y1="465.2002" x2="961.2939" y2="465.2002">
			<stop  offset="0" style="stop-color:#E3993A"/>
			<stop  offset="0.4809" style="stop-color:#D08532"/>
			<stop  offset="1" style="stop-color:#CE8A33"/>
		</linearGradient>
		<path style="fill:url(#SVGID_00000070839044202732728970000010467741553763665300_);" d="M956.74,288.71l-19.01,18.64
			c0,0-3.73,111.36-120.95,180.68c-30.27,17.9-185.93,111.29-365.93,156.44c0,0,224.13-52.13,351.88-128.14
			c0,0,36.29-18.07,72.49-59.22c14.54-16.52,33.93-36.77,43.46-61.06c11-28.04,23.91-56.06,29.89-78.38
			c3.89-14.53,9.3-26.35,9.84-31.54c0.11-1.02,2.79,2.15,2.89,1.07"/>
		
			<linearGradient id="SVGID_00000067916622269001599610000002572166502593540030_" gradientUnits="userSpaceOnUse" x1="111.5928" y1="538.1593" x2="586.0504" y2="538.1593">
			<stop  offset="0" style="stop-color:#E9A23D"/>
			<stop  offset="0.2414" style="stop-color:#EEAB40"/>
			<stop  offset="0.3955" style="stop-color:#EFB141"/>
			<stop  offset="0.6087" style="stop-color:#F1B643"/>
			<stop  offset="0.8043" style="stop-color:#F2BA43"/>
			<stop  offset="1" style="stop-color:#EFAF41"/>
		</linearGradient>
		<path style="fill:url(#SVGID_00000067916622269001599610000002572166502593540030_);" d="M363.13,519.94
			c-90.55,16.1-251.54,86.25-251.54,86.25s9.43-10.16,95.43-57.01c207.64-113.11,379.02-71.64,379.02-71.64
			s-58.39-13.34-163.94,21.02c-15.08,4.91-38.71,12.17-55.32,19.13"/>
		<path class="st17" d="M728.79,461.48c0,0,135.8-29.62,184.67-140.95c0,0-41.38,145.17-177.28,144.67"/>
		<line class="st17" x1="734.44" y1="462.5" x2="739.78" y2="458.57"/>
		<path class="st18" d="M712.79,377.66c0,0-2.27,1.38-2.97,1.94c-0.7,0.56,0.18,0.29,6.48-3c1.41-0.74,2.82-1.53,4.21-2.36
			c6.45-3.85,12.8-8.69,19.61-14.31c4.88-4.03,10-8.46,15.55-13.2c14.83-12.68,29.31-27.75,39.8-48.76
			c16.9-33.84,41.62-53.74,65.64-65.14c0,0-9.13,2.05-21.04,3.07c-8.89,0.76-19.61,0.33-27.72,1.4
			c-26.42,3.49-47.71,11.44-66.31,32.79c0,0-12.52-17.23-21.25-20.74c0,0,5.89-3.19,12.24-1.26c0,0,4.51-17.5-76.03,6.82
			c0,0,35.61,15.75,42.16,52.67c0,0,3.51-4.11,3.24-16.51c0,0,19.07,52.64-14.82,93.75l-0.73,2.87"/>
		<path class="st18" d="M862.39,226.91c0,0-26.02-47.99-90.1-34.27c0,0,45.9-12.31,89.07,35.9"/>
		<path class="st19" d="M863.22,229.76c0,0-9.6,6.52-24.18,6.72c-35.76,0.5-63.22,5.36-92.26,31.36c0,0-11.53-19.09-23.14-17.88
			l14.25-2.89c0,0-7.06-12.74-76.46,8.15c0,0,23.98-4.49,49.79-23.75c2.03-1.52,4-3.15,5.92-4.85c7.75-6.85,14.77-14.72,22.35-19.81
			c15.58-10.48,35.04-16.7,40.96-15.23c0,0,19.28-2.63,44.6,8.67c12.57,5.61,22.73,14.13,40.46,29.15"/>
		<path class="st18" d="M792.33,195.53c0,0,38.8,5.63,38.8,17.01c0,0-19.86,11.92-39.7-17.15"/>
		
			<linearGradient id="SVGID_00000054965247846373717710000004724428690963312047_" gradientUnits="userSpaceOnUse" x1="81.294" y1="193.8453" x2="611.0948" y2="193.8453">
			<stop  offset="0" style="stop-color:#323484"/>
			<stop  offset="0.2021" style="stop-color:#405BAA"/>
			<stop  offset="0.543" style="stop-color:#3B68AD"/>
			<stop  offset="0.627" style="stop-color:#4077AE"/>
			<stop  offset="0.8024" style="stop-color:#231E50"/>
			<stop  offset="1" style="stop-color:#282459"/>
		</linearGradient>
		
			<path style="fill:url(#SVGID_00000054965247846373717710000004724428690963312047_);stroke:#2E3673;stroke-width:1.3473;stroke-miterlimit:10;" d="
			M561.8,224.34c0,0-9.32-8.77-27.29-22.89c-15.89-12.49-36.85-28.86-88.63-51.52c-27.54-12.05-65.24-24.15-106.76-39.11
			c-9.88-3.56-27.35-4.72-39.24-8.98c-32.52-11.64-70.37-22.61-111.33-35.93c-22.66-7.37-55.7-14.88-78.29-24.83
			c-13.14-5.79-15.91-15.2-28.94-18.59c0,0-7.89,93.46,255.52,148.6c11.12,2.33,68.18,18.14,81.82,20.17
			c0,0,70.54,3.78,140.69,64.45c0,0-40.02-33.67-101.26-41.26c-161.16-19.97-263.66-58.73-312.47-85.38
			c0,0,48.57,101.81,265.41,113.91c0,0-99.06,5.26-179.52-18.71c0,0,20.46,15.38,97.66,26.58c25.73,3.73,87.62,5.75,117.35,8.25
			c80.49,6.76,86.46,17.63,123.74,43.87c0,0,25,13.61,27.69,62.24c0,0,45-73.81-31.41-139.11"/>
		
			<linearGradient id="SVGID_00000092427285404955432040000017441853272625013648_" gradientUnits="userSpaceOnUse" x1="412.8116" y1="360.3645" x2="790.0903" y2="360.3645">
			<stop  offset="0" style="stop-color:#171531"/>
			<stop  offset="0.3367" style="stop-color:#312A78"/>
			<stop  offset="0.544" style="stop-color:#3F489D"/>
			<stop  offset="0.712" style="stop-color:#292657"/>
			<stop  offset="1" style="stop-color:#150F21"/>
		</linearGradient>
		
			<path style="fill:url(#SVGID_00000092427285404955432040000017441853272625013648_);stroke:#36257E;stroke-width:1.3473;stroke-miterlimit:10;" d="
			M788.81,309.54c-25.46,77.52-77.89,116.46-142.26,127.57c-38.62,6.67-86.49-2.08-121.52-3.41c-68.17-2.59-112.23-0.5-112.23-0.5
			s19.53-25.51,81.98-46.12c38.65-12.76,103.67-17.65,142.06-33.84c41.34-17.43,59.66-45.19,53.95-72.09c0,0,5.17,7.29,12.04,29.45
			c0,0,3.08-1.84,4.79-17.33c0,0,8.92,60.67-16.29,92.08c0,0,50.04-11.66,98.74-79.14"/>
		<path class="st22" d="M688.38,275.81c0,0,1.54,2.85,3.62,7.09c0.57,1.17,1.19,2.45,1.82,3.81c3.48,7.46,7.53,17.2,8.56,24.04
			c0,0,3.94-12.82,4.31-18.7c0,0,19.54,56.59-14.12,91.1c0,0,24.93-42.59,15.08-75.44c0,0-2.44,7.01-5.05,7.2
			c0,0-6.13-20.74-10.08-27.37"/>
		
			<linearGradient id="SVGID_00000077296036219679871160000013963855195994635165_" gradientUnits="userSpaceOnUse" x1="372.1523" y1="344.358" x2="591.2857" y2="344.358">
			<stop  offset="0" style="stop-color:#35297E"/>
			<stop  offset="0.2529" style="stop-color:#312B78"/>
			<stop  offset="0.4599" style="stop-color:#312775"/>
			<stop  offset="0.5856" style="stop-color:#302A77"/>
			<stop  offset="0.7556" style="stop-color:#342F82"/>
			<stop  offset="1" style="stop-color:#383087"/>
		</linearGradient>
		
			<path style="fill:url(#SVGID_00000077296036219679871160000013963855195994635165_);stroke:#2C1962;stroke-width:1.3473;stroke-miterlimit:10;" d="
			M591.29,363.23c0,0-10.64,1.16-24.92-0.06c-43.11-3.65-135.13-11.75-194.21-0.95c0,0,15.78-5.19,34.39-13.35
			c31.03-13.6,76.82-31.7,121.1-20.25c0,0,47.53,10.48,60.64,32.21"/>
		<path class="st24" d="M578.34,365.17l-12.2,0.52c0,0-117.59-11.01-211.98,0.8c0,0,97.46-18.71,221.29-2.49"/>
		<path class="st19" d="M525.35,328.32c0,0-53.11-4.98-94.04,7.03c0,0,22.12-11.44,41.58-15.48c0,0-137.39-18.81-220.84-80.57
			c-6.49-4.8-13.94-8.47-19.67-13.83c0,0,8.29,6.79,25.65,17.04c20.91,12.34,54.96,29.69,103.52,46.23
			c25.81,8.79,61.63,15.42,94.44,23.33c23.71,5.72,44.02,7.93,68.04,14.57"/>
		
			<linearGradient id="SVGID_00000137100521201250615170000015964231264492983989_" gradientUnits="userSpaceOnUse" x1="84.7324" y1="161.1384" x2="613.209" y2="161.1384">
			<stop  offset="0" style="stop-color:#77A5C8"/>
			<stop  offset="0.2184" style="stop-color:#6EAFCC"/>
			<stop  offset="0.3986" style="stop-color:#75B6CF"/>
			<stop  offset="0.5374" style="stop-color:#75B8D1"/>
			<stop  offset="0.6553" style="stop-color:#B2DAE4"/>
			<stop  offset="1" style="stop-color:#50A3C8"/>
		</linearGradient>
		<path style="fill:url(#SVGID_00000137100521201250615170000015964231264492983989_);" d="M607.6,296.32c0,0,0.31-2.24-0.9-7.27
			c-1.2-5.03-3.92-12.85-9.96-24.02c-18.53-34.24-75.34-94.21-270.44-156.93c-3.06-0.98-44.9-14.62-48.02-15.6
			C242.56,81.24,154.26,66.75,84.73,25.95c0,0,77.42,48.37,211.19,83.69c126.69,33.45,266.55,100.87,317.29,186.52"/>
		
			<linearGradient id="SVGID_00000179610825334711526900000011233791815517742749_" gradientUnits="userSpaceOnUse" x1="237.1296" y1="255.2473" x2="563.1271" y2="255.2473">
			<stop  offset="0" style="stop-color:#3D60AC"/>
			<stop  offset="0.1971" style="stop-color:#3969AE"/>
			<stop  offset="0.3684" style="stop-color:#3D84B8"/>
			<stop  offset="0.494" style="stop-color:#5FAFCC"/>
			<stop  offset="0.612" style="stop-color:#A0D4E4"/>
			<stop  offset="0.8343" style="stop-color:#9FD4E5"/>
			<stop  offset="1" style="stop-color:#5FB3CD"/>
		</linearGradient>
		<path style="fill:url(#SVGID_00000179610825334711526900000011233791815517742749_);" d="M528.61,279.21
			c0,0-32.28-14.95-86.65-18.42c-102.8-6.56-164.23-14.54-204.82-35.76c0,0,34.21,11.16,75,15.22c16.36,1.63,66.31,2.19,70.53,2.69
			c83.71,9.83,138.55,16.62,180.46,42.52"/>
		
			<linearGradient id="SVGID_00000107562546441344555200000009369812654540611983_" gradientUnits="userSpaceOnUse" x1="234.3772" y1="240.9647" x2="596.3671" y2="240.9647">
			<stop  offset="0" style="stop-color:#3B63AC"/>
			<stop  offset="0.2022" style="stop-color:#3969AE"/>
			<stop  offset="0.3546" style="stop-color:#3E88BA"/>
			<stop  offset="0.5243" style="stop-color:#5EAFCC"/>
			<stop  offset="1" style="stop-color:#9DD4E4"/>
		</linearGradient>
		<path style="fill:url(#SVGID_00000107562546441344555200000009369812654540611983_);" d="M350.41,245.83
			c-21.66-1.61-71.95-7.07-116.03-22.76c0,0,41.34,19.08,70.61,26.3c0,0,33.66,6.01,59.27,7.51c27.19,1.59,59.86,2.83,79.02,1.24
			C401.79,250.72,371.14,247.38,350.41,245.83z"/>
		
			<linearGradient id="SVGID_00000047059760719103225720000015728504106328615830_" gradientUnits="userSpaceOnUse" x1="234.3772" y1="258.3108" x2="596.3671" y2="258.3108">
			<stop  offset="0" style="stop-color:#3B63AC"/>
			<stop  offset="0.2022" style="stop-color:#3969AE"/>
			<stop  offset="0.3546" style="stop-color:#3E88BA"/>
			<stop  offset="0.5243" style="stop-color:#5EAFCC"/>
			<stop  offset="1" style="stop-color:#9DD4E4"/>
		</linearGradient>
		<path style="fill:url(#SVGID_00000047059760719103225720000015728504106328615830_);" d="M449.27,257.46
			c-1.8,0.26-3.81,0.48-5.99,0.66c1.89,0.34,3.81,0.69,5.74,1.04C449.09,258.59,449.17,258.02,449.27,257.46z"/>
		<path class="st15" d="M756.02,351.5c-9.18,16.34-14.38,31.42-22.71,55.04c-50.7,143.67-501.66,58.29-612.13,96.61"/>
		<path class="st15" d="M861.58,230.76c0,0-56.11,29.68-88.53,95.52"/>
		<path class="st22" d="M874.62,258.92l-23.03,13.55l8.85-40.85c0,0-26.52,13.02-49.19,42.45c-7.06,9.17-23.84,38.09-27.81,51.67
			c-3.14,10.74-15.07,28.65-20.99,36.67c-28.43,38.49-53.77,56.69-71.12,64.22c0,0-32.99,20.46-138.7,11.24
			c0,0-228.85-37.65-442.69,69.35c0,0,246.67-112.5,549-47.08c0,0,32.65,9.18,68.33,3.79c0,0,55.44-23.13,83.79-104.72
			c21.78-62.68,52.88-84.94,67.52-93.64"/>
		
			<linearGradient id="SVGID_00000011016932069424060720000014709653054404521344_" gradientUnits="userSpaceOnUse" x1="638.3846" y1="373.4239" x2="836.3729" y2="373.4239">
			<stop  offset="0" style="stop-color:#1C1843"/>
			<stop  offset="0.3418" style="stop-color:#1E1E45"/>
			<stop  offset="0.6412" style="stop-color:#283165"/>
			<stop  offset="1" style="stop-color:#242859"/>
		</linearGradient>
		<path style="fill:url(#SVGID_00000011016932069424060720000014709653054404521344_);" d="M835.38,294.85
			c-38.62,86.7-82.45,152.54-104.51,160.37c-39.78,14.1-92.49-8.45-92.49-8.45s66.1,10.92,160.79-116.04
			c10.02-13.43,26.74-27.02,37.2-43.75"/>
		<path class="st8" d="M538.11,157.52c5.39,5.33,8.23,11.84,13.62,16.68c15,13.46,32.31,23.38,45.3,31.43
			c63.47,39.35,104.49,25.58,104.49,25.58s-20.23,10.21-92.03-19.74"/>
		<path class="st65" d="M858.17,205.71c0,0-13.21-11.61-33.69-24.83c0,0,0,0,0,0c-25.5-16.46-62.26-35.43-98.83-37.64
			c0,0-30.04-3.82-70-6.67c-42.69-3.05-96.32-5.59-124.88-20.51c0,0,93.18,60.53,207.01,67.28c10.44,0.62,31.08-5.35,45.43-4.81
			c16.19,0.6,26.15,7.57,37.67,5.44"/>
		<path class="st8" d="M520.23,108.75c0,0,0.76,0.88,2.17,2.42c0.67,0.74,1.49,1.63,2.45,2.66c12.48,13.37,47.95,48.97,77.82,55.87
			l9.8,0.03c0,0-27.55,0.25-82.07-54.96"/>
		<path class="st66" d="M840.48,194.01c0,0-11.84-22.88-106.38-14.85c-13.54,1.15-22,0.36-35.36-1.36c0.16,0.91-5.49-1.69-5.33-0.78
			c10.45,1.98,29.77,7.26,44.86,7.29c61.15,0.15,96.13,6.32,124.36,38.18L840.48,194.01z"/>
		
			<linearGradient id="SVGID_00000168805360372072804770000001492362928591064491_" gradientUnits="userSpaceOnUse" x1="238.6536" y1="293.9637" x2="605.4753" y2="293.9637">
			<stop  offset="0" style="stop-color:#3C318F"/>
			<stop  offset="0.2782" style="stop-color:#3D3A95"/>
			<stop  offset="0.5329" style="stop-color:#3D449B"/>
			<stop  offset="1" style="stop-color:#3E449C"/>
		</linearGradient>
		
			<path style="fill:url(#SVGID_00000168805360372072804770000001492362928591064491_);stroke:#323083;stroke-width:1.3473;stroke-miterlimit:10;" d="
			M593.4,361.74c0,0-13.49-34.97-78.56-41.27c-89.95-8.71-213.4-47.32-276.19-94.86c0,0,41.39,25.13,108.55,29.35
			c27.18,1.71,70.36,2.66,87.29,4.45c80.55,8.5,119.77,23.82,143.9,52.37C628.79,371.39,593.4,361.74,593.4,361.74z"/>
		<path class="st12" d="M838.2,190.21c0,0-19.22-11.73-49.76-14.16c-22.03-1.75-51.98,2.2-80.68-0.63
			c-63.01-6.21-129.84-23.61-163.1-54.12c0,0,26.99,18.76,75.43,14.48c72.52-6.4,172.99,16.79,222.13,56.08"/>
		<path id="shadow_y_00000010280658586527862740000003651102528941414554_" class="st36" d="M690.95,526.61
			c0,0-73.92-14.44-151.1-23.13c-50.3-5.66-113.92,4.44-122.01,6.72c0,0,81.32-38.69,174.23-29.09c0,0,88.33,18.28,116.31,21.68
			c21.18,2.58,46.87-1.22,59.03-4.37L690.95,526.61z"/>
		<path id="tiny_tail_shadow_00000080206010168266640500000008362635940431184787_" class="st37" d="M417.82,509.05
			c0,0-130.28,27.45-298.93,98.61C118.88,607.66,356.48,503.06,417.82,509.05z"/>
		<path id="light_yellow_shadow_00000160912359937186415810000007776198219684435383_" class="st38" d="M591.57,479.66
			c0,0-20.15-3.82-65.83,2.55c-9.64,1.34-25,3.47-37.86,6.19c-21.81,4.61-43.7,10.94-71.08,18.1c-17.14,4.48-30.56,5.57-50.63,11.83
			c0,0,30.46-9.84,68-20.72c9.86-2.86,30.58-9.99,41.41-12.72c32.49-8.18,58.67-10.41,97.16-8.25"/>
		<path class="st39" d="M742.68,463.17c0,0,93.45,18.79,161.18-118.81c9.31-22.14-37.39,122.07-153.29,122.68"/>
		
			<linearGradient id="tail_db_00000072983013910361247850000009583059491456521656_" gradientUnits="userSpaceOnUse" x1="263.1295" y1="600.2887" x2="611.0934" y2="600.2887">
			<stop  offset="0" style="stop-color:#2C215F"/>
			<stop  offset="0.5568" style="stop-color:#3E4799"/>
			<stop  offset="0.7313" style="stop-color:#2E2770"/>
			<stop  offset="1" style="stop-color:#29215E"/>
		</linearGradient>
		
			<path id="tail_db_00000039118284086146917860000007220913300331636885_" style="fill:url(#tail_db_00000072983013910361247850000009583059491456521656_);" d="
			M609.82,530.87c-89.47,95.34-456.07,143.9-458.12,144.15c0,0,170.84-73.06,305.35-116.95
			C545.08,529.33,621.98,517.92,609.82,530.87z"/>
		
			<linearGradient id="tail_lb_00000159429449370088324300000015034283461576336808_" gradientUnits="userSpaceOnUse" x1="157.6922" y1="598.2231" x2="620.7054" y2="598.2231">
			<stop  offset="0" style="stop-color:#4152A6"/>
			<stop  offset="0.2728" style="stop-color:#4152A6"/>
			<stop  offset="0.4916" style="stop-color:#3F4EA3"/>
			<stop  offset="0.6542" style="stop-color:#3E499F"/>
			<stop  offset="0.8271" style="stop-color:#3D459C"/>
			<stop  offset="1" style="stop-color:#3E459D"/>
		</linearGradient>
		
			<path id="tail_lb_00000065064039224724321360000008458909341235938980_" style="fill:url(#tail_lb_00000159429449370088324300000015034283461576336808_);stroke:#291862;stroke-width:1.3473;stroke-miterlimit:10;" d="
			M582.37,525.79C359.35,511.14,157.69,671.6,157.69,671.6s66.97-30.45,155.73-65.22c36.89-14.45,76.48-33.14,118.28-45.16
			c64.72-18.6,129.62-35.76,189.01-29.98"/>
		<path id="tail_tiny_shadow_00000146495495961706068560000005877754753434723490_" class="st42" d="M584.17,527.2
			c0,0-3.96-0.75-11.1-1.69c-0.42-0.06-3.68-0.34-9.04-0.7c-21.83-1.47-78.51-4.18-120.23,2.25l-2.52,5.13
			c0,0-102.48,25.09-160.68,60.63c0,0,153.57-80.74,283.09-64.76"/>
		
			<linearGradient id="tail_lb_shadow_00000127002960534746007880000012994588175014919064_" gradientUnits="userSpaceOnUse" x1="193.0772" y1="637.6329" x2="427.7898" y2="535.3991">
			<stop  offset="0" style="stop-color:#5197C4"/>
			<stop  offset="0.1842" style="stop-color:#4890C0"/>
			<stop  offset="0.4176" style="stop-color:#3D7DB4"/>
			<stop  offset="0.6372" style="stop-color:#3E60AB"/>
			<stop  offset="0.8434" style="stop-color:#4158A8"/>
			<stop  offset="1" style="stop-color:#4051A5"/>
		</linearGradient>
		
			<path id="tail_lb_shadow_00000160893736772865464930000008039135612189094046_" style="fill:url(#tail_lb_shadow_00000127002960534746007880000012994588175014919064_);" d="
			M146.14,673.87c0,0,0.67-0.46,1.96-1.33c2.22-1.5,6.29-4.22,11.96-7.91c0.98-0.64,2-1.3,3.07-1.99
			c43.13-27.88,161.23-100.4,271.15-133.57c0,0-115.4,18.53-246.99,114.35c-3.47,2.53-8.25,6.52-11.74,9.15
			c-3.28,2.47-5.27,3.59-8.56,6.16"/>
		
			<linearGradient id="SVGID_00000014621347728101075700000011019875428451906981_" gradientUnits="userSpaceOnUse" x1="374.443" y1="555.6951" x2="441.0235" y2="526.6946">
			<stop  offset="0" style="stop-color:#5197C4"/>
			<stop  offset="0.1842" style="stop-color:#4890C0"/>
			<stop  offset="0.4176" style="stop-color:#3D7DB4"/>
			<stop  offset="0.6372" style="stop-color:#3E60AB"/>
			<stop  offset="0.8434" style="stop-color:#4158A8"/>
			<stop  offset="1" style="stop-color:#4051A5"/>
		</linearGradient>
		<polyline style="fill:url(#SVGID_00000014621347728101075700000011019875428451906981_);" points="433.91,527.47 443.8,527.06 
			441.28,532.19 357.43,557.49 409.5,537.01 		"/>
		<path id="shadow_tail_00000152957455577860401420000001331482291683778195_" class="st22" d="M217.28,665.12
			c-26.59,3.63-50.54,4.64-73.6,11.63c0,0,255.9-34.71,487.34-139.79c0,0-115.15-44.43-233.92-19.84c0,0,27.42-34.42,240.27-0.52
			c14.47,2.31,37.5,12.2,54.95,9.28c0,0-72.17,23.64-151.44,55.66c-104.29,42.13-214.28,72.4-360.32,87.45"/>
		<path class="st45" d="M614.19,531.04c0,0-1.72-0.6-5.01-1.6c-21.32-6.45-108.6-29.36-219.68-10.98c0,0,63.27-30.07,219.08-6.25
			c18.24,2.79,56.33,11.95,78.71,13.03c0,0-23.05,6.16-57.93,18.54c-15.63,5.55-33.64,12.35-53,20.42c-2,0.83-4.01,1.68-6.03,2.53
			c-55.31,23.43-16.24,4.23-16.24,4.23s11.53-6.1,25.07-14.72c12.03-7.65,10.99-10.02,35.62-28.95"/>
		<path id="db_beak_00000042718940327556627440000008200663150645038744_" class="st8" d="M949.2,233.23c0,0-1.02,0.04-2.9,0.25
			c-15.59,1.74-90.27,15.32-131.05,117.67c-2.61,0.41-29.5,82.31-85.98,110.74c0,0,10.23-1.16,20.55,3.61
			c0.42,0.19,0.84,0.4,1.26,0.61c0,0-18.4,3.06-40.87,2.89c-13.48-0.1-22.65-0.47-46.39-5.89c-12.46-2.84-35.96-8.44-57.33-12.84
			c-18.38-3.79-35.18-6.7-41.99-6.2c0,0-35.54-4.59-77.9-6.02c-56.99-1.92-131.02,0.75-192.03,17.24c0,0-112.32,20.39-187.48,55.77
			c0,0,172.15-90.6,374.56-79.2c0,0,33.54,0.6,57.71,2.77c30.39,2.73,55.71,7.13,90.99,6.72c31.39-0.36,45.99-6.6,72.78-19.56
			c0,0,53.9-32.22,85.92-113.24c0,0,25.74-57.41,72.49-76.77c0,0,6.15-9.55-0.24-23.5c0,0,24.94-2.18,82.32,22.84"/>
		
			<linearGradient id="lower_beak_00000089576409135198226740000008539206200232064661_" gradientUnits="userSpaceOnUse" x1="854.7451" y1="246.8874" x2="939.0916" y2="246.8874">
			<stop  offset="0" style="stop-color:#F1F560"/>
			<stop  offset="0.3004" style="stop-color:#F4D746"/>
			<stop  offset="0.6042" style="stop-color:#F2A741"/>
			<stop  offset="1" style="stop-color:#EDA940"/>
		</linearGradient>
		
			<path id="lower_beak_00000065786239491002246840000006967915758413236406_" style="fill:url(#lower_beak_00000089576409135198226740000008539206200232064661_);" d="
			M854.75,261.26c0,0,40.9-27.5,84.35-28.47c0,0-57.26-2.51-75.38,7.62L854.75,261.26z"/>
		
			<linearGradient id="Uppebeak_00000060720969495808590350000018395622683575432109_" gradientUnits="userSpaceOnUse" x1="867.3405" y1="224.7248" x2="940.4711" y2="224.7248">
			<stop  offset="0" style="stop-color:#F3DC47"/>
			<stop  offset="0.5" style="stop-color:#ECB741"/>
			<stop  offset="1" style="stop-color:#EDAA40"/>
		</linearGradient>
		
			<path id="Uppebeak_00000116224110757388227470000002996882547463571119_" style="fill:url(#Uppebeak_00000060720969495808590350000018395622683575432109_);" d="
			M868.68,217.31c0,0,12-7.88,71.79,15.18c0,0-9.3-1.03-18.51-1.88c-6.21-0.58-10.61-1.08-18.78-1.14c-6.96-0.05-14.95,0.21-22,1.02
			c-5.48,0.63-10.39,1.58-13.83,2.97c0,0,2.44-6.96,2.61-8.84L868.68,217.31z"/>
		
			<linearGradient id="shadow_00000035529453180390960360000012945037634459991429_" gradientUnits="userSpaceOnUse" x1="649.4309" y1="467.8863" x2="849.697" y2="325.7454">
			<stop  offset="0" style="stop-color:#1C1843"/>
			<stop  offset="0.4151" style="stop-color:#222552"/>
			<stop  offset="0.7075" style="stop-color:#283467"/>
			<stop  offset="1" style="stop-color:#26285B"/>
		</linearGradient>
		
			<path id="shadow_00000098200185188209471750000012909869445540693677_" style="fill:url(#shadow_00000035529453180390960360000012945037634459991429_);" d="
			M759.84,381.61c-40.28,51.79-86.69,68.24-117.07,67.45c-50.51-1.32,42.77,8.41,73.9,11.56c3.67-0.53,7.27-1.52,10.71-3.13
			c0.28-0.13,0.56-0.21,0.83-0.29l2.34-1.41C783.08,426.18,834.4,290.7,834.4,290.7S802.39,326.9,759.84,381.61z"/>
		
			<linearGradient id="SVGID_00000024692995376404593660000007935479294805430449_" gradientUnits="userSpaceOnUse" x1="526.9418" y1="171.9948" x2="761.2212" y2="171.9948">
			<stop  offset="0" style="stop-color:#3C208F"/>
			<stop  offset="0.3868" style="stop-color:#181539"/>
			<stop  offset="1" style="stop-color:#3E3D9A"/>
		</linearGradient>
		
			<path style="fill:url(#SVGID_00000024692995376404593660000007935479294805430449_);stroke:#1B153B;stroke-width:1.3473;stroke-miterlimit:10;" d="
			M701.28,229.2c0,0-66.4,22.69-163.22-71.94c0,0,40.97,28.66,89.08,14.63c0,0-36.02,5.71-100.2-60.93
			c0,0,112.76,73.46,234.28,82.77l-56.43,39.29"/>
		<path class="st8" d="M601.42,354.55c0,0,39.02-46.47-37.3-131.44c0,0,25.11,8.46,42.61-10.15c0,0,4.46,15.5-29.66,16.48
			c0,0,57.72,51.88,31.03,117.4L601.42,354.55z"/>
		<path class="st15" d="M610.13,215.47c0,0,50.95,28.34,91.44,16.12"/>
		<path class="st8" d="M700.45,229.16c0,0-64.76,22.99-163.09-72.11c0,0,33.33,37.17,64.94,54.97c0,0,51.52,27.01,96.97,20.2"/>
		<path class="st22" d="M595.68,168.26c0,0-53.91-25.8-73.31-60c0,0,48.17,52.08,88.22,61.71L595.68,168.26z"/>
		
			<linearGradient id="SVGID_00000019671169098929218030000014549855718276713652_" gradientUnits="userSpaceOnUse" x1="157.6919" y1="424.9266" x2="578.214" y2="424.9266">
			<stop  offset="0" style="stop-color:#1E1941"/>
			<stop  offset="1" style="stop-color:#2E276D"/>
		</linearGradient>
		
			<path style="fill:url(#SVGID_00000019671169098929218030000014549855718276713652_);stroke:#2E2A74;stroke-width:1.3473;stroke-miterlimit:10;" d="
			M571.59,367.86c0,0-197.48,22.44-413.9,118.44c0,0,159.47-49.32,246.94-53.97c0,0,53.2-40.78,173.58-68.77"/>
	</g>
</g>
</svg>
